<?xml version="1.0" encoding="UTF-8"?>
<svg xmlns="http://www.w3.org/2000/svg" xmlns:xlink="http://www.w3.org/1999/xlink"
     width="1024" height="576" viewBox="0 0 1024 576">
<defs>
</defs>
<rect x="0" y="0" width="1024" height="576" fill="#5ae65a" stroke="black" stroke-width="1" stroke-opacity="1" />
<path d="M400,288 L428.0,288 L430.0,286.0 L430.0,283.0 L424.0,283.0 L424.0,282.0 L430.0,282.0 L432.0,280.0 L437.0,280.0 L439.0,282.0 L439.0,285.0 L442.0,285.0 L442.0,283.0 L449.0,283.0 L449.0,285.0 L453.0,285.0 L453.0,276.0 L455.0,274.0 L459.0,274.0 L461.0,276.0 L461.0,281.0 L464.0,281.0 L464.0,279.0 L468.0,279.0 L468.0,273.0 L471.0,270.0 L476.0,270.0 L476.0,278.0" fill="none" stroke="blue" />
<path d="M476.0,278.0 L479.0,278.0 L479.0,254.0 L476.0,254.0 L476.0,253.0 L484.0,253.0 L484.0,254.0 L480.0,254.0 L480.0,278.0 L481.0,278.0 L483.0,280.0 L488.0,280.0 L488.0,284.0 L492.0,284.0 L492.0,280.0 L498.0,280.0 L498.0,271.0 L501.0,268.0 L506.0,268.0 L506.0,278.0 L510.0,278.0 L510.0,276.0 L514.0,276.0 L514.0,262.0 L515.0,262.0 L515.0,272.0 L518.0,272.0 L518.0,270.0" fill="none" stroke="blue" />
<path d="M518.0,270.0 L522.0,270.0 L522.0,281.0 L529.0,281.0 L529.0,278.0 L531.0,276.0 L535.0,276.0 L537.0,278.0 L537.0,281.0 L538.0,281.0 L538.0,289.0 L541.0,289.0 L541.0,284.0 L543.0,282.0 L551.0,282.0 L551.0,284.0 L557.0,284.0 L557.0,282.0 L564.0,282.0 L564.0,281.0 L566.0,279.0 L572.0,279.0 L574.0,281.0 L574.0,285.0 L578.0,285.0 L578.0,281.0 L580.0,279.0 L585.0,279.0 L587.0,281.0" fill="none" stroke="blue" />
<path d="M587.0,281.0 L593.0,281.0 L593.0,282.0 L587.0,282.0 L587.0,285.0 L611.0,285.0 L599.0,297.0 L404.0,297.0 L400.0,293.0 L400.0,288.0" fill="none" stroke="blue" />
</svg>